<mxfile host="65bd71144e" modified="2020-12-25T08:44:45.596Z" agent="5.0 (Windows NT 10.0; Win64; x64) AppleWebKit/537.36 (KHTML, like Gecko) Code/1.52.1 Chrome/83.0.4103.122 Electron/9.3.5 Safari/537.36" version="13.10.0" etag="fRSCB6k3hu6gWhNJBOdA" type="embed">
    <diagram id="7S5z2eJ2w0kO20BHIKUe" name="Page-1">
        <mxGraphModel dx="792" dy="419" grid="0" gridSize="10" guides="1" tooltips="1" connect="1" arrows="1" fold="1" page="1" pageScale="1" pageWidth="3300" pageHeight="4681" background="#000033" math="0" shadow="0">
            <root>
                <mxCell id="0"/>
                <mxCell id="1" parent="0"/>
                <mxCell id="37" value="header" style="swimlane;html=1;startSize=29;horizontal=1;childLayout=treeLayout;horizontalTree=0;resizable=0;containerType=tree;rounded=0;sketch=0;strokeColor=#006658;fillColor=#21C0A5;fontFamily=Comic Sans MS;fontSize=14;fontColor=#000000;" vertex="1" parent="1">
                    <mxGeometry x="135" y="60" width="420" height="199" as="geometry">
                        <mxRectangle x="280" y="86" width="140" height="20" as="alternateBounds"/>
                    </mxGeometry>
                </mxCell>
                <mxCell id="49" style="edgeStyle=orthogonalEdgeStyle;curved=0;rounded=1;sketch=0;orthogonalLoop=1;jettySize=auto;html=1;entryX=0.5;entryY=0;entryDx=0;entryDy=0;strokeColor=#006658;fillColor=#21C0A5;fontFamily=Comic Sans MS;fontSize=14;fontColor=#000000;exitX=0.5;exitY=1;exitDx=0;exitDy=0;" edge="1" parent="37" source="38" target="39">
                    <mxGeometry relative="1" as="geometry"/>
                </mxCell>
                <mxCell id="38" value="header&amp;nbsp;" style="whiteSpace=wrap;html=1;fontColor=#ffffff;rounded=1;strokeColor=none;" vertex="1" parent="37">
                    <mxGeometry x="160" y="49" width="100" height="40" as="geometry"/>
                </mxCell>
                <mxCell id="39" value="Alert" style="whiteSpace=wrap;html=1;strokeColor=none;glass=0;sketch=0;shadow=0;rounded=1;" vertex="1" parent="37">
                    <mxGeometry x="300" y="139" width="100" height="40" as="geometry"/>
                </mxCell>
                <mxCell id="50" value="Alert" style="whiteSpace=wrap;html=1;strokeColor=none;glass=0;sketch=0;shadow=0;rounded=1;" vertex="1" parent="37">
                    <mxGeometry x="20" y="139" width="100" height="40" as="geometry"/>
                </mxCell>
                <mxCell id="51" style="edgeStyle=orthogonalEdgeStyle;curved=0;rounded=1;sketch=0;orthogonalLoop=1;jettySize=auto;html=1;exitX=0.5;exitY=1;exitDx=0;exitDy=0;strokeColor=#006658;fillColor=#21C0A5;fontFamily=Comic Sans MS;fontSize=14;fontColor=#000000;" edge="1" parent="37" source="38" target="50">
                    <mxGeometry relative="1" as="geometry"/>
                </mxCell>
                <mxCell id="52" value="header-status" style="whiteSpace=wrap;html=1;strokeColor=none;glass=0;sketch=0;shadow=0;rounded=1;" vertex="1" parent="37">
                    <mxGeometry x="160" y="139" width="100" height="40" as="geometry"/>
                </mxCell>
                <mxCell id="53" style="edgeStyle=orthogonalEdgeStyle;curved=0;rounded=1;sketch=0;orthogonalLoop=1;jettySize=auto;html=1;strokeColor=#006658;fillColor=#21C0A5;fontFamily=Comic Sans MS;fontSize=14;fontColor=#000000;" edge="1" parent="37" source="38" target="52">
                    <mxGeometry relative="1" as="geometry"/>
                </mxCell>
            </root>
        </mxGraphModel>
    </diagram>
</mxfile>